<svg xmlns="http://www.w3.org/2000/svg" viewBox="0 0 156 197" aria-label="UvNL square lockup">
  <g fill="currentColor">
    <path d="M0 0H44V92H111V0H156V138H112V98H105.629C102.676 121.678 82.4777 140 52 140C22.4903 140 0 117.5 0 85.5V0Z"></path>
    <path d="M18.033 162.779L22.1413 174.629H26.4479V156.38H22.8117V168.258L18.7034 156.38H14.3848V174.629H18.033V162.779Z"></path>
    <path d="M32.4465 156.38H28.5088V174.627H32.4465V156.38Z"></path>
    <path d="M42.5927 156.38L40.1784 170.407L37.6572 156.38H33.4316L37.4349 174.629H42.5927L46.4925 156.38H42.5927Z"></path>
    <path d="M56.6055 171.299H51.3942V167.026H55.5939V163.813H51.3942V159.71H56.3952V156.38H47.4961V174.629H56.6055V171.299Z"></path>
    <path d="M86.3909 156.38H82.4531V174.627H86.3909V156.38Z"></path>
    <path d="M90.945 174.629H94.8828V159.71H98.3484V156.38H87.4795V159.71H90.945V174.629Z"></path>
    <path d="M108.539 171.299H103.328V167.026H107.529V163.813H103.328V159.71H108.329V156.38H99.4297V174.629H108.539V171.299Z"></path>
    <path d="M113.974 156.38H110.036V174.627H113.974V156.38Z"></path>
    <path d="M118.53 174.629H122.468V159.71H125.933V156.38H115.064V159.71H118.53V174.629Z"></path>
    <path d="M9.16279 178.752L6.74845 192.779L4.22726 178.752H0L4.00495 197H9.16279L13.0609 178.752H9.16279Z"></path>
    <path d="M15.9528 178.752L12.1719 196.998H16.1493L16.8851 192.935H20.311L21.0469 196.998H25.2483L21.3502 178.752H15.9545H15.9528ZM17.266 189.999L18.605 181.65L19.9577 189.999H17.266Z"></path>
    <path d="M34.6535 190.629L30.5452 178.752H26.2266V197H29.8748V185.15L33.9849 197H38.2897V178.752H34.6535V190.629Z"></path>
    <path d="M53.1623 190.629L49.0539 178.752H44.7354V197H48.3836V185.15L52.4936 197H56.7985V178.752H53.1623V190.629Z"></path>
    <path d="M62.7663 189.397H66.9677V186.184H62.7663V182.082H67.7673V178.752H58.8682V197H67.9775V193.67H62.7663V189.397Z"></path>
    <path d="M86.5944 189.397H90.7958V186.184H86.5944V182.082H91.5954V178.752H82.6963V197H91.8057V193.67H86.5944V189.397Z"></path>
    <path d="M110.041 178.752H106.104V197H114.872V193.656H110.041V178.752Z"></path>
    <path d="M119.271 178.752L115.49 196.998H119.468L120.203 192.935H123.629L124.365 196.998H128.567L124.669 178.752H119.273H119.271ZM120.584 189.999L121.923 181.65L123.276 189.999H120.584Z"></path>
    <path d="M137.973 190.629L133.863 178.752H129.544V197H133.194V185.15L137.302 197H141.607V178.752H137.973V190.629Z"></path>
    <path d="M75.2654 178.752H69.6182V196.998H75.2654C79.5978 196.998 80.9816 194.272 80.9816 187.874C80.9816 181.476 79.5961 178.75 75.2654 178.75V178.752ZM76.5045 193.696H73.3836V182.056H76.5045V193.696V193.696Z"></path>
    <path d="M6.69454 175.007C10.1205 175.007 12.3918 173.119 12.3918 169.213V156.38H8.45403V170.841H4.94539L4.93677 156.382H0.999023V169.215C0.999023 173.121 3.27033 175.009 6.69626 175.009L6.69454 175.007Z"></path>
    <path d="M69.0997 161.232C69.0997 157.995 67.4453 156.382 64.1245 156.382H58.0723V174.629H61.998V167.101H64.9379V174.629H68.7585V167.962C68.7585 166.762 67.7848 165.79 66.5837 165.792V165.356H66.6681C66.656 165.355 66.6457 165.351 66.6319 165.348C68.2604 164.811 69.0997 163.369 69.0997 161.232V161.232ZM63.6265 164.351H61.998V159.554H63.5989C64.7139 159.554 65.174 160.249 65.174 161.927C65.174 163.696 64.7139 164.351 63.6247 164.351H63.6265Z"></path>
    <path d="M76.5667 163.656C74.7952 162.569 74.335 162.018 74.335 160.772V159.445H77.1509V161.584H80.7423C80.7285 157.927 78.9707 156 75.662 156C72.3532 156 70.4249 157.9 70.4249 161.008C70.4249 163.696 71.6725 165.307 74.7831 166.828C76.6201 167.824 77.1061 168.571 77.1061 170.053V171.464H73.7612V168.9H70.1612C70.1095 172.596 71.9603 175.009 75.674 175.009C79.0207 175.009 81.0163 173.004 81.0163 169.779C80.9766 166.909 79.7307 165.348 76.5667 163.658V163.656Z"></path>
    <path d="M104.299 183.603C104.299 180.366 102.645 178.753 99.3237 178.753H93.2715V197H97.1972V189.473H100.137V197H103.958V190.333C103.958 189.134 102.984 188.161 101.783 188.163V187.728H101.867C101.855 187.726 101.845 187.723 101.831 187.719C103.46 187.182 104.299 185.74 104.299 183.603V183.603ZM98.8257 186.723H97.1972V181.925H98.7981C99.9131 181.925 100.373 182.62 100.373 184.298C100.373 186.067 99.9131 186.723 98.824 186.723H98.8257Z"></path>
    <path d="M149.498 178.752H143.851V196.998H149.498C153.83 196.998 155.214 194.272 155.214 187.874C155.214 181.476 153.829 178.75 149.498 178.75V178.752ZM150.737 193.696H147.616V182.056H150.737V193.696V193.696Z"></path>
  </g>
</svg>