<svg xmlns="http://www.w3.org/2000/svg" viewBox="0 0 156 195" fill="currentColor" role="img" aria-label="Universiteiten van Vlaanderen vierkant lockup">
<g><path id="Union" d="M0 0H44V92H111V0H156V138H112V98H105.629C102.676 121.678 82.4777 140 52 140C22.4903 140 0 117.5 0 85.5V0Z"/></g>
<g transform="translate(0,156.000) scale(1.00000,1.00034)"><path id="Union" fill-rule="evenodd" clip-rule="evenodd" d="M70.0387 18.0232C66.6016 18.0232 64.8886 15.7354 64.9364 12.2303V12.232H68.2683V14.6633H71.3641V13.3253C71.3641 11.9203 70.9143 11.2121 69.2141 10.2673C66.3352 8.82477 65.1805 7.29741 65.1805 4.74854C65.1805 1.80151 66.9652 0 70.0275 0C73.0898 0 74.7166 1.82762 74.7294 5.29519H71.4055V3.26686H68.7994V4.52498C68.7994 5.7064 69.2252 6.22858 70.8648 7.25987C73.7932 8.8623 74.9463 10.3423 74.983 13.0642C74.983 16.1222 73.136 18.0232 70.0387 18.0232ZM16.6911 6.42602L20.495 17.6626H24.4792V0.360628H21.1138V11.6217L17.3115 0.360628H13.3146V17.6626H16.6911V6.42602ZM6.24898 34.9809L8.48668 21.6703H12.0976L8.48668 38.9869H3.70824L0 21.6703H3.91558L6.24898 34.9809ZM106.464 21.6768H101.237V38.9788H106.464C110.474 38.9788 111.754 36.394 111.754 30.327C111.754 24.26 110.472 21.6752 106.464 21.6752V21.6768ZM107.611 35.8474H104.722V24.8099H107.611V35.8474ZM133.197 26.2769C133.197 23.2074 131.666 21.6785 128.592 21.6785H122.991V38.9804H126.624V31.8429H129.345V38.9804H132.881V32.6588C132.881 31.5215 131.98 30.5995 130.868 30.6011V30.1883H130.946C130.938 30.1871 130.931 30.1852 130.923 30.183L130.913 30.1801C132.42 29.671 133.197 28.3036 133.197 26.2769ZM128.13 29.2353H126.624V24.6859H128.106C129.138 24.6859 129.563 25.3451 129.563 26.9361C129.563 28.6136 129.138 29.2353 128.13 29.2353ZM14.7771 21.6703L11.2746 38.9869H14.959L15.64 35.131H18.8139L19.495 38.9869H23.385L19.7741 21.6703H14.7771ZM15.9925 32.3439L17.2333 24.4199L18.4854 32.3439H15.9925ZM28.2943 21.6703L32.0998 32.9411V21.6703H35.4683V38.9869H31.4794L27.6738 27.7406V38.9869H24.2941V21.6703H28.2943ZM46.6664 34.9809L44.3314 21.6703H40.4174L44.1256 38.9869H48.9041L52.515 21.6703H48.9041L46.6664 34.9809ZM53.4449 21.6703H57.0925V35.8147H61.5663V38.9869H53.4449V21.6703ZM65.6414 21.6703L62.1389 38.9869H65.8232L66.5043 35.131H69.6782L70.3592 38.9869H74.2493L70.6384 21.6703H65.6414ZM66.8567 32.3439L68.0976 24.4199L69.3496 32.3439H66.8567ZM74.7326 38.9869L78.2351 21.6703H83.232L86.843 38.9869H82.9529L82.2719 35.131H79.0979L78.4169 38.9869H74.7326ZM80.6913 24.4199L79.4504 32.3439H81.9433L80.6913 24.4199ZM95.5577 32.9411L91.7522 21.6703H87.7521V38.9869H91.1318V27.7406L94.9373 38.9869H98.9262V21.6703H95.5577V32.9411ZM120.619 31.7711H116.729V35.8262H121.555V38.9869H113.118V21.6703H121.361V24.8311H116.729V28.7246H120.619V31.7711ZM138.412 31.7711H142.302V28.7246H138.412V24.8311H143.044V21.6703H134.801V38.9869H143.238V35.8262H138.412V31.7711ZM152.405 32.9411V21.6703H155.773V38.9869H151.784L147.979 27.7406V38.9869H144.599V21.6703H148.599L152.405 32.9411ZM26.3867 0.360628H30.0311V17.6626H26.3867V0.360628ZM39.4238 0.360628L37.1876 13.6598L34.8558 0.360628H30.9435L34.6485 17.6626H39.4238L43.0315 0.360628H39.4238ZM47.5675 14.5051H52.3906V17.6626H43.9598V0.360628H52.196V3.51816H47.5675V7.40837H51.456V10.4533H47.5675V14.5051ZM79.9576 0.360628H76.3132V17.6626H79.9576V0.360628ZM87.8191 17.6626H84.1746V3.51816H80.9672V0.360628H91.0265V3.51816H87.8191V17.6626ZM95.6327 10.4533H99.5211V7.40837H95.6327V3.51816H100.263V0.360628H92.0249V17.6626H100.457V14.5051H95.6327V10.4533ZM101.842 0.360628H105.486V17.6626H101.842V0.360628ZM109.703 17.6626H113.348V3.51816H116.555V0.360628H106.496V3.51816H109.703V17.6626ZM11.4708 12.529C11.4708 16.2328 9.36904 18.0229 6.19874 18.0232C3.02844 18.0229 0.926661 16.2328 0.926661 12.529V0.360628H4.5711L4.57908 14.071H7.82638V0.360628H11.4708V12.529ZM57.3812 10.5251H60.1022V17.6626H63.6382V11.341C63.6382 10.2036 62.737 9.28167 61.6253 9.28331V8.87046H61.7035C61.6957 8.86931 61.6886 8.86737 61.6807 8.86518L61.67 8.8623C63.1772 8.35318 63.954 6.98573 63.954 4.95904C63.954 1.88962 62.4228 0.360628 59.3494 0.360628H53.7479V17.6626H57.3812V10.5251ZM57.3812 3.36966H58.8629C59.8948 3.36966 60.3207 4.02891 60.3207 5.61992C60.3207 7.29741 59.8948 7.91912 58.8868 7.91912H57.3796V3.36803L57.3812 3.36966Z"/></g>
</svg>
